<?xml version="1.0" encoding="utf-8"?>
<!-- Generator: Adobe Illustrator 23.0.3, SVG Export Plug-In . SVG Version: 6.00 Build 0)  -->
<svg version="1.1" id="Logo" xmlns="http://www.w3.org/2000/svg" xmlns:xlink="http://www.w3.org/1999/xlink" x="0px" y="0px"
	 viewBox="0 0 24 24" style="enable-background:new 0 0 24 24;" xml:space="preserve">
<g>
	<path d="M12,2.57c3.07,0,3.43,0.01,4.65,0.07c1.12,0.05,1.73,0.24,2.14,0.4c0.54,0.21,0.92,0.46,1.32,0.86
		c0.4,0.4,0.65,0.79,0.86,1.32c0.16,0.41,0.34,1.01,0.4,2.14c0.06,1.21,0.07,1.58,0.07,4.65s-0.01,3.43-0.07,4.65
		c-0.05,1.12-0.24,1.73-0.4,2.14c-0.21,0.54-0.46,0.92-0.86,1.32c-0.4,0.4-0.79,0.65-1.32,0.86c-0.41,0.16-1.01,0.34-2.14,0.4
		c-1.21,0.06-1.58,0.07-4.65,0.07s-3.43-0.01-4.65-0.07c-1.12-0.05-1.73-0.24-2.14-0.4C4.68,20.76,4.3,20.51,3.9,20.1
		c-0.4-0.4-0.65-0.79-0.86-1.32c-0.16-0.41-0.34-1.01-0.4-2.14C2.58,15.43,2.57,15.07,2.57,12s0.01-3.43,0.07-4.65
		c0.05-1.12,0.24-1.73,0.4-2.14C3.24,4.68,3.49,4.3,3.9,3.9c0.4-0.4,0.79-0.65,1.32-0.86c0.41-0.16,1.01-0.34,2.14-0.4
		C8.57,2.58,8.93,2.57,12,2.57 M12,0.5c-3.12,0-3.51,0.01-4.74,0.07C6.03,0.63,5.2,0.82,4.47,1.1C3.71,1.4,3.07,1.79,2.43,2.43
		C1.79,3.07,1.4,3.71,1.1,4.47C0.82,5.2,0.63,6.03,0.57,7.26C0.51,8.49,0.5,8.88,0.5,12c0,3.12,0.01,3.51,0.07,4.74
		c0.06,1.22,0.25,2.06,0.53,2.79c0.29,0.76,0.69,1.4,1.33,2.04c0.64,0.64,1.28,1.03,2.04,1.33c0.73,0.28,1.57,0.48,2.79,0.53
		C8.49,23.49,8.88,23.5,12,23.5s3.51-0.01,4.74-0.07c1.22-0.06,2.06-0.25,2.79-0.53c0.76-0.29,1.4-0.69,2.04-1.33
		c0.64-0.64,1.03-1.28,1.33-2.04c0.28-0.73,0.48-1.57,0.53-2.79c0.06-1.23,0.07-1.62,0.07-4.74s-0.01-3.51-0.07-4.74
		c-0.06-1.22-0.25-2.06-0.53-2.79c-0.29-0.76-0.69-1.4-1.33-2.04c-0.64-0.64-1.28-1.03-2.04-1.33c-0.73-0.28-1.57-0.48-2.79-0.53
		C15.51,0.51,15.12,0.5,12,0.5L12,0.5z"/>
	<path d="M12,6.09c-3.26,0-5.91,2.64-5.91,5.91s2.64,5.91,5.91,5.91s5.91-2.64,5.91-5.91S15.26,6.09,12,6.09z M12,15.83
		c-2.12,0-3.83-1.72-3.83-3.83S9.88,8.17,12,8.17s3.83,1.72,3.83,3.83S14.12,15.83,12,15.83z"/>
	<circle cx="18.14" cy="5.86" r="1.38"/>
</g>
</svg>
