<?xml version="1.0" encoding="utf-8"?>
<!-- Generator: Adobe Illustrator 23.0.3, SVG Export Plug-In . SVG Version: 6.00 Build 0)  -->
<svg version="1.1" id="Logo_FIXED" xmlns="http://www.w3.org/2000/svg" xmlns:xlink="http://www.w3.org/1999/xlink" x="0px" y="0px"
	 viewBox="0 0 24 24" style="enable-background:new 0 0 24 24;" xml:space="preserve">
<title>Twitter_Logo_Blue</title>
<path d="M7.73,21.34c8.68,0,13.43-7.19,13.43-13.43c0-0.2,0-0.41-0.01-0.61c0.92-0.67,1.72-1.5,2.35-2.44
	c-0.86,0.38-1.77,0.63-2.71,0.74c0.99-0.59,1.72-1.52,2.07-2.61c-0.93,0.55-1.94,0.94-3,1.15c-1.79-1.9-4.78-1.99-6.68-0.2
	c-1.23,1.15-1.75,2.87-1.37,4.51C8.03,8.26,4.5,6.46,2.1,3.52c-1.25,2.16-0.61,4.91,1.46,6.3C2.81,9.79,2.08,9.59,1.42,9.23
	c0,0.02,0,0.04,0,0.06c0,2.25,1.58,4.18,3.79,4.63c-0.69,0.19-1.42,0.22-2.13,0.08c0.62,1.92,2.39,3.24,4.41,3.28
	c-1.67,1.31-3.74,2.03-5.86,2.02c-0.38,0-0.75-0.02-1.12-0.07C2.66,20.61,5.17,21.34,7.73,21.34"/>
</svg>
